<?xml version="1.0" standalone="no"?>
<!DOCTYPE svg PUBLIC "-//W3C//DTD SVG 20010904//EN"
 "http://www.w3.org/TR/2001/REC-SVG-20010904/DTD/svg10.dtd">
<svg version="1.0" xmlns="http://www.w3.org/2000/svg"
 width="1297.000000pt" height="1212.000000pt" viewBox="0 0 1297.000000 1212.000000"
 preserveAspectRatio="xMidYMid meet">

<g transform="translate(0.000000,1212.000000) scale(0.100000,-0.100000)"
fill="#000000" stroke="none">
<path d="M3084 12092 c-273 -151 -663 -521 -861 -817 -209 -313 -343 -658
-399 -1030 -20 -135 -23 -441 -6 -575 68 -518 275 -953 637 -1338 l72 -77
-246 -1 c-281 -1 -432 -19 -681 -80 -361 -89 -708 -262 -1020 -507 -244 -192
-454 -388 -515 -481 -67 -101 -63 -194 12 -293 250 -329 771 -717 1197 -892
321 -131 597 -188 1002 -207 l152 -6 4 68 c3 38 3 133 0 210 l-5 142 -121 7
c-549 30 -977 188 -1420 523 -130 99 -346 291 -346 308 0 13 127 123 261 227
249 193 591 371 864 451 243 71 400 90 668 83 226 -6 346 -26 557 -93 l115
-36 25 33 c118 155 200 227 335 294 129 63 232 93 412 120 41 6 43 8 93 102
85 159 205 330 334 477 241 272 674 504 1166 625 703 172 1590 168 2235 -10
377 -104 712 -267 957 -466 188 -153 374 -388 489 -618 49 -100 53 -105 88
-110 374 -60 559 -159 747 -400 l31 -40 134 43 c248 79 452 108 704 99 173 -6
285 -22 437 -62 347 -90 717 -293 1059 -579 185 -154 181 -123 33 -257 -356
-323 -734 -539 -1110 -635 -182 -46 -312 -64 -506 -71 l-168 -6 -2 -188 c-1
-104 -2 -199 -2 -211 l-1 -23 190 1 c619 5 1190 218 1725 642 52 42 176 157
276 256 206 207 234 249 234 350 -1 111 -54 187 -269 384 -453 413 -919 670
-1421 782 -200 45 -508 67 -722 53 -65 -5 -118 -6 -118 -4 0 2 35 42 78 90
395 435 580 850 622 1396 44 567 -166 1251 -520 1694 -197 247 -534 551 -721
651 -51 27 -66 30 -143 30 -117 0 -165 -27 -201 -112 -29 -70 -20 -129 37
-257 174 -392 213 -544 212 -831 -1 -140 -5 -196 -23 -278 -68 -321 -244 -567
-526 -735 -299 -178 -651 -283 -970 -289 -86 -1 -99 2 -294 66 -440 145 -723
194 -1239 218 -633 30 -1265 -51 -1757 -224 l-150 -52 -155 0 c-129 0 -176 5
-281 27 -175 37 -321 86 -477 162 -290 140 -477 311 -590 540 -79 161 -112
298 -119 510 -10 284 36 475 203 836 29 64 58 138 64 164 21 96 -22 200 -101
241 -18 9 -58 14 -116 14 -77 0 -94 -4 -139 -28z m-348 -1175 c0 -244 2 -271
27 -388 60 -287 174 -503 372 -708 223 -231 487 -394 820 -507 77 -26 143 -50
148 -54 4 -3 -30 -38 -76 -77 -79 -67 -182 -176 -274 -288 -103 -127 -259
-397 -338 -589 -16 -37 -34 -70 -41 -73 -25 -9 -234 111 -371 214 -231 174
-441 432 -569 698 -279 580 -233 1255 122 1798 55 84 169 237 177 237 1 0 2
-118 3 -263z m7641 -1 c255 -411 349 -919 253 -1361 -77 -350 -263 -681 -534
-950 -144 -144 -369 -306 -499 -360 l-33 -14 -73 147 c-149 301 -259 466 -436
658 -47 51 -119 121 -161 155 -59 49 -72 64 -60 71 8 5 75 29 148 54 325 110
574 268 803 506 153 158 238 290 308 473 76 198 97 347 97 672 l0 217 65 -88
c36 -49 91 -130 122 -180z"/>
<path d="M6935 7903 c-22 -6 -83 -48 -103 -73 -46 -55 -63 -122 -50 -187 10
-45 26 -64 296 -335 l286 -288 -286 -287 c-238 -240 -288 -295 -297 -328 -15
-53 -14 -74 4 -126 40 -112 160 -167 260 -119 25 12 187 164 438 412 l397 393
0 48 c0 57 32 18 -386 457 -360 376 -390 405 -436 425 -36 15 -82 18 -123 8z"/>
<path d="M5878 7886 c-52 -19 -159 -120 -514 -482 -188 -192 -314 -329 -323
-350 -30 -73 -25 -78 400 -496 230 -226 405 -390 427 -400 90 -42 194 -1 243
94 24 47 25 141 1 185 -9 18 -138 156 -286 309 l-268 276 64 67 c35 36 161
165 280 286 196 200 217 225 225 265 19 92 -18 182 -90 225 -54 31 -112 39
-159 21z"/>
<path d="M3870 7863 c-96 -7 -235 -35 -310 -62 -185 -68 -299 -187 -359 -376
-37 -115 -49 -222 -56 -525 -11 -414 -25 -481 -125 -574 -65 -61 -137 -93
-239 -108 l-81 -12 0 -202 0 -201 68 -6 c170 -14 303 -114 348 -262 11 -37 18
-131 25 -360 12 -421 22 -527 59 -637 51 -152 106 -227 223 -306 130 -86 284
-125 548 -139 l129 -6 -2 209 -3 209 -105 7 c-263 18 -334 55 -376 194 -15 50
-27 221 -44 614 -10 239 -23 320 -73 430 -33 74 -104 166 -166 215 l-51 40 60
53 c79 71 153 184 184 280 34 109 44 208 56 526 11 309 25 399 68 460 50 73
119 94 365 112 l87 6 0 214 0 214 -92 -2 c-51 -1 -113 -3 -138 -5z"/>
<path d="M8830 7657 l0 -215 98 -6 c196 -13 268 -34 324 -93 61 -64 74 -135
88 -478 16 -390 30 -478 100 -621 32 -65 56 -96 123 -161 l84 -81 -48 -36
c-82 -61 -171 -193 -207 -306 -27 -84 -42 -226 -52 -501 -6 -162 -15 -330 -21
-373 -17 -130 -59 -195 -155 -237 -43 -20 -181 -39 -276 -39 l-58 0 0 -210 0
-210 63 0 c82 0 307 26 382 45 33 8 102 36 153 61 122 60 194 130 251 243 66
131 81 203 92 456 26 598 27 609 46 657 57 144 179 231 345 245 l68 6 0 202 0
201 -74 12 c-160 25 -259 89 -316 205 -39 80 -47 148 -60 487 -12 326 -22 417
-57 523 -94 284 -314 407 -770 433 l-123 7 0 -216z"/>
<path d="M4648 6336 c-70 -20 -129 -59 -186 -121 -174 -190 -113 -490 124
-610 54 -27 68 -30 159 -30 91 0 106 3 167 32 115 54 187 146 213 272 29 136
-12 267 -112 362 -73 69 -144 100 -241 105 -47 2 -96 -2 -124 -10z"/>
<path d="M8096 6339 c-63 -15 -153 -69 -197 -116 -177 -193 -119 -503 116
-619 55 -27 69 -29 165 -29 94 1 111 3 163 29 80 38 151 111 190 193 29 62 32
77 32 163 0 88 -3 101 -33 162 -42 85 -129 168 -209 198 -66 25 -169 34 -227
19z"/>
<path d="M6255 3964 c-698 -41 -1112 -111 -1445 -245 -203 -81 -370 -183 -523
-320 -37 -34 -69 -60 -71 -58 -1 2 -17 72 -35 154 -18 83 -42 185 -53 228
l-20 77 -47 1 c-25 0 -129 8 -231 18 -102 10 -186 17 -188 16 -1 -1 15 -74 37
-161 136 -545 142 -591 151 -1314 l7 -585 25 -96 c14 -52 40 -129 57 -170 136
-327 444 -572 803 -640 35 -6 73 -18 85 -25 12 -8 50 -51 85 -96 89 -117 197
-227 314 -322 664 -532 1686 -569 2407 -86 162 108 354 299 466 462 20 31 41
50 59 54 309 66 454 134 619 287 131 122 246 310 293 477 44 160 50 240 50
710 0 685 18 855 139 1340 22 85 37 157 35 159 -2 2 -59 -1 -126 -7 -68 -7
-169 -15 -226 -19 l-102 -6 -10 -36 c-5 -20 -28 -119 -50 -221 -23 -101 -43
-186 -45 -188 -2 -2 -41 28 -87 68 -364 316 -789 453 -1623 525 -166 15 -630
26 -750 19z m790 -458 c313 -34 495 -65 691 -116 536 -141 787 -391 886 -882
21 -102 23 -141 23 -408 0 -282 -1 -298 -23 -365 -39 -117 -81 -184 -167 -271
-87 -88 -158 -130 -275 -161 -61 -17 -169 -18 -1725 -18 l-1660 0 -75 27
c-113 40 -168 74 -250 157 -91 93 -131 158 -165 276 -46 156 -44 473 5 743 75
413 290 686 657 834 224 90 562 157 970 193 214 19 910 13 1108 -9z m380
-2666 l100 -1 -35 -30 c-64 -54 -224 -157 -310 -199 -452 -218 -1028 -209
-1473 22 -111 58 -287 185 -287 207 0 5 1496 5 2005 1z"/>
<path d="M6423 3149 c-57 -10 -93 -31 -136 -78 -134 -148 -23 -395 178 -395
134 0 234 101 235 237 0 153 -127 262 -277 236z"/>
<path d="M4986 2880 c-71 -22 -104 -87 -82 -165 19 -68 187 -481 222 -544 35
-66 100 -126 172 -159 75 -35 185 -37 252 -6 139 64 194 225 135 399 -73 220
-283 397 -549 465 -85 22 -106 23 -150 10z"/>
<path d="M7822 2875 c-136 -30 -295 -114 -403 -213 -154 -143 -226 -330 -183
-483 25 -88 95 -160 179 -185 115 -33 244 3 330 93 55 56 91 129 209 420 97
240 104 280 60 332 -23 28 -78 52 -114 50 -8 0 -43 -7 -78 -14z"/>
<path d="M6382 2377 c-184 -67 -201 -331 -27 -432 l46 -27 -86 -165 c-47 -91
-84 -167 -82 -170 8 -8 124 -23 179 -23 l56 0 47 58 c61 76 150 258 175 356
23 91 25 204 6 259 -44 123 -188 189 -314 144z"/>
</g>
</svg>
