<?xml version="1.0" encoding="UTF-8"?>
<svg xmlns="http://www.w3.org/2000/svg" viewBox="0 0 1024 980" width="1024" height="980">
  <title>MooCode</title>

  <!-- color palette -->
  <!-- dark blue: #1A5BA0   medium blue: #2E90E0 -->

  <g fill="none" stroke-linecap="round" stroke-linejoin="round">

    <!-- ============ HORNS (behind head) ============ -->
    <g fill="#1A5BA0">
      <path d="M 188,58
               C 150,82 128,140 134,190
               C 142,244 200,288 338,302
               C 300,272 248,250 228,208
               C 210,162 198,108 188,58 Z"/>
      <path d="M 836,58
               C 874,82 896,140 890,190
               C 882,244 824,288 686,302
               C 724,272 776,250 796,208
               C 814,162 826,108 836,58 Z"/>
    </g>

    <!-- ============ EARS (behind head) ============ -->
    <g fill="#FFFFFF" stroke="#1A5BA0" stroke-width="30">
      <path d="M 318,442 C 214,408 96,420 44,472 C 100,524 214,530 322,498 Z"/>
      <path d="M 706,442 C 810,408 928,420 980,472 C 924,524 810,530 702,498 Z"/>
    </g>

    <!-- ============ HEAD ============ -->
    <path fill="#FFFFFF" stroke="#1A5BA0" stroke-width="32"
          d="M 350,292
             C 360,235 430,195 512,195
             C 594,195 664,235 674,292
             C 730,335 742,430 720,520
             C 705,592 668,648 612,690
             C 600,760 560,815 512,845
             C 464,815 424,760 412,690
             C 356,648 319,592 304,520
             C 282,430 294,335 350,292 Z"/>

    <!-- ============ CURLY BRACES (inner face frame) ============ -->
    <g stroke="#2E90E0" stroke-width="20">
      <path d="M 330,346 C 300,348 300,372 300,400 C 300,430 300,452 280,468
               C 300,484 300,506 300,536 C 300,564 300,588 330,590"/>
      <path d="M 694,346 C 724,348 724,372 724,400 C 724,430 724,452 744,468
               C 724,484 724,506 724,536 C 724,564 724,588 694,590"/>
    </g>

    <!-- ============ ANGLE BRACKETS  < >  (forehead) ============ -->
    <g stroke="#2E90E0" stroke-width="26">
      <path d="M 478,330 L 412,388 L 478,446"/>
      <path d="M 546,330 L 612,388 L 546,446"/>
    </g>

    <!-- ============ EYES ============ -->
    <g fill="#1A5BA0">
      <circle cx="385" cy="480" r="26"/>
      <circle cx="639" cy="480" r="26"/>
    </g>

    <!-- ============ MUZZLE ============ -->
    <path fill="#FFFFFF" stroke="#1A5BA0" stroke-width="30"
          d="M 372,654
             C 322,654 300,694 300,738
             C 300,792 336,830 404,832
             L 620,832
             C 688,830 724,792 724,738
             C 724,694 702,654 652,654 Z"/>

    <!-- ============ NOSTRILS ============ -->
    <g fill="#1A5BA0">
      <path d="M 452,732 C 430,748 428,778 448,790 C 468,794 476,766 468,746 C 464,738 458,732 452,732 Z"/>
      <path d="M 572,732 C 594,748 596,778 576,790 C 556,794 548,766 556,746 C 560,738 566,732 572,732 Z"/>
    </g>

    <!-- ============ SEMICOLON  ; ============ -->
    <g fill="#2E90E0">
      <circle cx="512" cy="742" r="14"/>
      <path d="M 512,772 C 528,776 528,798 514,808 C 506,820 496,826 486,828
               C 502,816 512,800 510,786 C 509,780 510,776 512,772 Z"/>
    </g>

    <!-- ============ SMILE ============ -->
    <path stroke="#1A5BA0" stroke-width="24" d="M 460,860 C 484,890 540,890 564,860"/>

  </g>
</svg>
